<?xml version="1.0" encoding="UTF-8" standalone="no"?>
<svg
   xmlns:dc="http://purl.org/dc/elements/1.1/"
   xmlns:cc="http://creativecommons.org/ns#"
   xmlns:rdf="http://www.w3.org/1999/02/22-rdf-syntax-ns#"
   xmlns:svg="http://www.w3.org/2000/svg"
   xmlns="http://www.w3.org/2000/svg"
   xmlns:xlink="http://www.w3.org/1999/xlink"
   xmlns:sodipodi="http://sodipodi.sourceforge.net/DTD/sodipodi-0.dtd"
   xmlns:inkscape="http://www.inkscape.org/namespaces/inkscape"
   id="svg1901"
   viewBox="0 0 798.99997 909.99998"
   version="1.0"
   sodipodi:docname="illustration-signin.svg"
   width="799"
   height="910"
   inkscape:version="0.92.5 (2060ec1f9f, 2020-04-08)">
  <sodipodi:namedview
     pagecolor="#ffffff"
     bordercolor="#666666"
     borderopacity="1"
     objecttolerance="10"
     gridtolerance="10"
     guidetolerance="10"
     inkscape:pageopacity="0"
     inkscape:pageshadow="2"
     inkscape:window-width="2040"
     inkscape:window-height="1860"
     id="namedview57"
     showgrid="false"
     inkscape:zoom="0.76111011"
     inkscape:cx="507.54358"
     inkscape:cy="522.52927"
     inkscape:window-x="0"
     inkscape:window-y="60"
     inkscape:window-maximized="0"
     inkscape:current-layer="svg1901" />
  <defs
     id="defs1903">
    <filter
       id="filter2706"
       y="-0.12"
       x="-0.079999998"
       height="1.4299999">
      <feTurbulence
         id="feTurbulence2708"
         baseFrequency="0 0.073408239700374536"
         seed="30"
         numOctaves="1"
         type="fractalNoise"
         result="result1" />
      <feDisplacementMap
         id="feDisplacementMap2710"
         scale="53.005464"
         in="SourceGraphic"
         xChannelSelector="R"
         yChannelSelector="G"
         in2="result1" />
    </filter>
    <radialGradient
       id="radialGradient2551"
       gradientUnits="userSpaceOnUse"
       cy="211.92"
       cx="587.25"
       gradientTransform="matrix(0.034151,1.3766,-1.2329,0.030586,828.47,-602.96)"
       r="89.072998"
       xlink:href="#linearGradient3436">
      <stop
         id="stop2547"
         stop-color="#f60"
         offset="0"
         style="stop-color:#c7f9cc;stop-opacity:1" />
      <stop
         id="stop2549"
         stop-color="#f60"
         stop-opacity="0"
         offset="1"
         style="stop-color:#2257af;stop-opacity:0.94117647" />
    </radialGradient>
    <linearGradient
       id="linearGradient3374"
       y2="456.67001"
       gradientUnits="userSpaceOnUse"
       y1="264.53"
       x2="506.89001"
       x1="502.17999">
      <stop
         id="stop3370"
         stop-color="#732e00"
         offset="0"
         style="stop-color:#2257af;stop-opacity:1" />
      <stop
         id="stop3376"
         stop-color="#a74200"
         offset=".5"
         style="stop-color:#1a4386;stop-opacity:1" />
      <stop
         id="stop3372"
         stop-color="#4e1f00"
         offset="1"
         style="stop-color:#1b55b6;stop-opacity:1" />
    </linearGradient>
    <linearGradient
       id="linearGradient3428"
       x1="78.184998"
       gradientUnits="userSpaceOnUse"
       x2="82.948997"
       y1="102.67"
       y2="-59.282001">
      <stop
         id="stop3424"
         offset="0" />
      <stop
         id="stop3426"
         stop-opacity="0"
         offset="1" />
    </linearGradient>
    <linearGradient
       id="linearGradient3436"
       y2="46.756001"
       gradientUnits="userSpaceOnUse"
       y1="211.37"
       x2="490.44"
       x1="490.44">
      <stop
         id="stop3432"
         stop-color="#a40"
         offset="0"
         style="stop-color:#194a4b;stop-opacity:1" />
      <stop
         id="stop3434"
         stop-color="#ea4a00"
         offset="1"
         style="stop-color:#38a3a5;stop-opacity:1" />
    </linearGradient>
    <clipPath
       id="clipPath3491"
       clipPathUnits="userSpaceOnUse">
      <rect
         id="rect3493"
         y="46.756001"
         width="524.59998"
         x="116.73"
         height="409.04001" />
    </clipPath>
    <clipPath
       id="clipPath3495"
       clipPathUnits="userSpaceOnUse">
      <rect
         id="rect3497"
         transform="scale(1,-1)"
         height="584.37"
         width="749.46002"
         y="-440.87"
         x="-343.41" />
    </clipPath>
    <clipPath
       id="clipPath3499"
       clipPathUnits="userSpaceOnUse">
      <rect
         id="rect3501"
         y="50.912998"
         width="524.59998"
         x="120.05"
         height="409.04001" />
    </clipPath>
    <clipPath
       id="clipPath3503"
       clipPathUnits="userSpaceOnUse">
      <rect
         id="rect3505"
         y="-150.59"
         width="749.46002"
         x="-340.04001"
         height="584.37" />
    </clipPath>
    <clipPath
       id="clipPath3507"
       clipPathUnits="userSpaceOnUse">
      <rect
         id="rect3509"
         y="19.830999"
         width="524.59998"
         x="123.34"
         height="409.04001" />
    </clipPath>
    <clipPath
       id="clipPath3511"
       clipPathUnits="userSpaceOnUse">
      <rect
         id="rect3513"
         y="50.912998"
         width="524.59998"
         x="120.47"
         height="409.04001" />
    </clipPath>
    <clipPath
       id="clipPath3515"
       clipPathUnits="userSpaceOnUse">
      <rect
         id="rect3517"
         y="-5.6594"
         width="524.59998"
         x="345.14999"
         height="409.04001" />
    </clipPath>
    <clipPath
       id="clipPath3519"
       clipPathUnits="userSpaceOnUse">
      <rect
         id="rect3521"
         y="19.830999"
         width="461.73999"
         x="158.73"
         height="409.04001" />
    </clipPath>
    <linearGradient
       id="linearGradient3569"
       y2="349.42999"
       gradientUnits="userSpaceOnUse"
       y1="336.79999"
       x2="202.49001"
       x1="202.49001">
      <stop
         id="stop3565"
         offset="0" />
      <stop
         id="stop3567"
         stop-opacity="0"
         offset="1" />
    </linearGradient>
    <linearGradient
       inkscape:collect="always"
       xlink:href="#linearGradient3428"
       id="linearGradient864"
       gradientUnits="userSpaceOnUse"
       x1="78.184998"
       y1="102.67"
       x2="82.948997"
       y2="-59.282001" />
    <linearGradient
       inkscape:collect="always"
       xlink:href="#linearGradient3428"
       id="linearGradient866"
       gradientUnits="userSpaceOnUse"
       x1="78.184998"
       y1="102.67"
       x2="82.948997"
       y2="-59.282001" />
    <clipPath
       clipPathUnits="userSpaceOnUse"
       id="clipPath870">
      <rect
         style="opacity:0.903;fill:#cccccc;fill-opacity:1;fill-rule:nonzero;stroke:none;stroke-width:0.45033035;stroke-miterlimit:4;stroke-dasharray:none;stroke-opacity:1"
         id="rect872"
         width="353.74979"
         height="408.20306"
         x="114.488"
         y="41.814434"
         rx="3.7341063"
         ry="0.22281834" />
    </clipPath>
  </defs>
  <g
     id="layer1"
     transform="matrix(2.2604868,0,0,2.2291544,-259.35251,-92.926219)"
     clip-path="url(#clipPath870)">
    <rect
       id="rect3341"
       clip-path="url(#clipPath3519)"
       transform="matrix(1.1361,0,0,1,-171.57,22.747)"
       height="229.67"
       width="562.29999"
       y="227"
       x="103.74"
       style="fill:url(#linearGradient3374);filter:url(#filter2706)" />
    <path
       id="path2540"
       d="m 680,234 a 89,89 0 1 1 -178,0 89,89 0 1 1 178,0 z"
       clip-path="url(#clipPath3515)"
       transform="translate(-336.38,48.237)"
       inkscape:connector-curvature="0"
       style="fill:url(#radialGradient2551);filter:url(#filter2706);fill-opacity:1.0" />
    <rect
       id="rect2538"
       clip-path="url(#clipPath3511)"
       transform="translate(-110.86,-9.9983)"
       height="226.92999"
       width="558.66998"
       y="31.082001"
       x="102.05"
       style="fill:url(#linearGradient3436)" />
    <path
       id="path2421"
       clip-path="url(#clipPath3507)"
       transform="translate(-114.56,22.747)"
       d="m 366.84,85.531 c -51.08,0 -92.56,41.479 -92.56,92.559 0,17.96 5.14,34.71 14,48.91 h 157.1 c 8.86,-14.2 14,-30.95 14,-48.91 0,-51.08 -41.46,-92.559 -92.54,-92.559 z"
       inkscape:connector-curvature="0"
       style="fill:#c7f9cc;fill-opacity:1" />
    <g
       id="g2513"
       transform="matrix(0.69997,0,0,0.69997,246.79,147.99)"
       clip-path="url(#clipPath3503)">
      <path
         id="use2693"
         d="M 57.188,0 C 52.989,3.0633 52.386,9.8477 55.312,15.969 51.628,9.9521 45.332,2.323 32.094,2.156 40.104,4.2032 41.81,9.1892 52.25,17.219 42.604,9.4782 20.819,3.589 5.344,21.906 19.732,12.591 32.018,15.779 49.969,19.094 32.181,16.164 11.311,27.578 0,41 15,30.16 32.915,23.314 50.344,22.844 33.3,23.079 27.76,48.971 31.281,69.812 32.519,54.474 37.714,40.48 48.156,29.375 c 0.144,0.224 0.255,0.464 0.438,0.656 -0.059,0.231 -0.188,0.443 -0.188,0.688 0,1.908 1.895,3.469 4.219,3.469 1.456,0 2.681,-0.671 3.437,-1.594 14.036,43.246 21.5,64.639 21.5,112.79 l 13.844,-0.47 c 0,-48.159 -9.207,-71.94 -27.844,-115.47 1.33,-0.352 2.289,-1.224 2.626,-2.346 C 85.009,34.648 86.87,60.55 88.125,81.723 89.833,58.017 91.053,19.958 62.156,21.91 85.369,20.709 95.809,29.076 109.47,39.442 96.757,25.033 79.418,9.956 65.281,17.629 c -1.034,0.666 -2.061,1.256 -3.125,2.094 1.016,-0.836 2.071,-1.522 3.125,-2.094 C 78.028,9.4186 88.583,13.502 98.406,15.348 84.88,9.2086 68.411,5.153 62.25,15.285 64.824,9.8134 65.927,6.8365 69.406,4.691 64.227,5.9232 58.747,10.354 58.75,15.973 58.727,10.782 54.781,5.061 57.188,0.004 Z"
         inkscape:connector-curvature="0"
         style="fill-rule:evenodd" />
    </g>
    <path
       id="path2518"
       d="m 623.14,168.49 c -0.1,0 -0.18,0.03 -0.24,0.06 -5.41,2.44 -10.61,6.36 -16.09,8.84 -7.79,3.51 -9.86,12.91 -17.49,17.05 -5.25,2.84 -8.05,6.23 -11.9,8.84 -7.29,4.94 -19.11,6.6 -26.58,11.99 -4.43,3.2 -11.93,6.32 -18.89,6.32 -7.1,0 -18.58,-3.02 -25.19,-0.63 -5.34,1.93 -8.5,3.52 -13.29,5.68 -0.93,0.42 -1.87,0.84 -2.8,1.26 -5.48,2.48 -9.55,1.21 -15.39,2.53 -3.69,0.83 -6.6,4.28 -10.49,5.68 -2.31,0.84 -15.19,4.68 -16.1,6.32 -1.74,3.14 -7.8,6.68 -11.19,8.21 -4.79,2.16 -7.34,-1.46 -11.89,-0.64 -4.55,0.83 -10.43,0.6 -14.69,2.53 -1.56,0.7 -4.99,3.73 -7.37,5.05 h 258.53 v -73.29 c -0.24,-0.19 -0.48,-0.39 -0.7,-0.59 -3.47,-3.13 -3.71,-5.08 -8.4,-5.68 -5.65,-0.73 -26.81,-9.74 -29.84,-9.53 z m -520.09,-4.1 v 93.69 h 222.01 c 0.51,-0.53 -7.1,-2.6 -9.97,-2.6 -5.21,0 -7.93,-1.17 -12.63,-2.09 -7.73,-1.52 -12.41,-1.13 -15.29,-6.78 -1.72,-3.37 -9.43,-7.92 -12.63,-10.43 -4.6,-3.6 -9.38,-5.09 -15.29,-6.25 -6.42,-1.26 -8.9,-3.23 -15.28,-5.74 -5.24,-2.05 -11.79,-6.49 -14.63,-10.95 -3.8,-5.96 -11.49,-11.32 -16.62,-16.68 -4.86,-5.09 -12.17,-7.46 -17.28,-11.47 -5.56,-4.37 -12.32,-6.63 -19.94,-7.82 -10.51,-1.65 -21.41,-0.96 -31.91,-2.61 -1.32,-0.21 -2.65,-0.35 -3.98,-0.52 -5.38,-0.7 -10.52,-4.84 -15.96,-6.26 -6.97,-1.82 -13.61,-3.06 -20.6,-3.49 z"
       clip-path="url(#clipPath3499)"
       transform="translate(-111.28,-8.3355)"
       inkscape:connector-curvature="0"
       style="fill-rule:evenodd;stroke:#000000;stroke-width:1px" />
    <g
       id="g3351"
       transform="matrix(0.69997,0,0,-0.69997,251.65,348.68)"
       clip-path="url(#clipPath3495)"
       style="fill:url(#linearGradient866);filter:url(#filter2706)">
      <path
         id="path3355"
         d="M 57.188,0 C 52.989,3.0633 52.386,9.8477 55.312,15.969 51.628,9.9521 45.332,2.323 32.094,2.156 40.104,4.2032 41.81,9.1892 52.25,17.219 42.604,9.4782 20.819,3.589 5.344,21.906 19.732,12.591 32.018,15.779 49.969,19.094 32.181,16.164 11.311,27.578 0,41 15,30.16 32.915,23.314 50.344,22.844 33.3,23.079 27.76,48.971 31.281,69.812 32.519,54.474 37.714,40.48 48.156,29.375 c 0.144,0.224 0.255,0.464 0.438,0.656 -0.059,0.231 -0.188,0.443 -0.188,0.688 0,1.908 1.895,3.469 4.219,3.469 1.456,0 2.681,-0.671 3.437,-1.594 14.036,43.246 21.5,64.639 21.5,112.79 l 13.844,-0.47 c 0,-48.159 -9.207,-71.94 -27.844,-115.47 1.33,-0.352 2.289,-1.224 2.626,-2.346 C 85.009,34.648 86.87,60.55 88.125,81.723 89.833,58.017 91.053,19.958 62.156,21.91 85.369,20.709 95.809,29.076 109.47,39.442 96.757,25.033 79.418,9.956 65.281,17.629 c -1.034,0.666 -2.061,1.256 -3.125,2.094 1.016,-0.836 2.071,-1.522 3.125,-2.094 C 78.028,9.4186 88.583,13.502 98.406,15.348 84.88,9.2086 68.411,5.153 62.25,15.285 64.824,9.8134 65.927,6.8365 69.406,4.691 64.227,5.9232 58.747,10.354 58.75,15.973 58.727,10.782 54.781,5.061 57.188,0.004 Z"
         inkscape:connector-curvature="0"
         style="fill:url(#linearGradient864);fill-rule:evenodd" />
    </g>
    <path
       id="path3366"
       d="m 620.78,347.68 c -0.09,-0.01 -0.18,-0.03 -0.24,-0.06 -5.41,-2.44 -10.61,-6.37 -16.09,-8.84 -7.79,-3.52 -9.86,-12.92 -17.49,-17.05 -5.25,-2.84 -8.05,-6.24 -11.89,-8.84 -7.3,-4.94 -19.11,-6.6 -26.59,-12 -4.43,-3.2 -11.93,-6.31 -18.89,-6.31 -7.1,0 -18.58,3.01 -25.18,0.63 -5.35,-1.93 -8.51,-3.52 -13.3,-5.69 -0.93,-0.42 -1.86,-0.84 -2.8,-1.26 -5.48,-2.47 -9.55,-1.21 -15.39,-2.52 -3.69,-0.84 -6.6,-4.28 -10.49,-5.69 -2.31,-0.83 -15.18,-4.67 -16.09,-6.31 -1.75,-3.15 -7.81,-6.68 -11.2,-8.21 -4.79,-2.16 -7.33,1.45 -11.89,0.63 -4.55,-0.82 -10.42,-0.6 -14.69,-2.53 -1.55,-0.7 -4.99,-3.72 -7.37,-5.05 h 258.53 v 73.29 c -0.24,0.19 -0.48,0.39 -0.7,0.59 -3.46,3.13 -3.71,5.08 -8.39,5.69 -5.66,0.73 -26.82,9.74 -29.85,9.53 z m -520.09,4.09 V 258.08 H 322.7 c 0.51,0.54 -7.1,2.61 -9.97,2.61 -5.21,0 -7.92,1.16 -12.63,2.09 -7.73,1.51 -12.41,1.13 -15.29,6.77 -1.71,3.37 -9.43,7.93 -12.63,10.43 -4.6,3.61 -9.38,5.1 -15.28,6.26 -6.43,1.26 -8.9,3.23 -15.29,5.73 -5.23,2.05 -11.79,6.5 -14.63,10.95 -3.8,5.97 -11.49,11.33 -16.61,16.69 -4.87,5.09 -12.18,7.46 -17.29,11.47 -5.56,4.36 -12.32,6.62 -19.94,7.82 -10.51,1.65 -21.41,0.96 -31.9,2.61 -1.32,0.2 -2.66,0.34 -3.99,0.52 -5.37,0.7 -10.52,4.83 -15.95,6.25 -6.97,1.83 -13.62,3.07 -20.61,3.49 z"
       clip-path="url(#clipPath3491)"
       transform="translate(-107.95,-4.1786)"
       inkscape:connector-curvature="0"
       style="fill-rule:evenodd;stroke:#000000;stroke-width:1px;filter:url(#filter2706)" />
    <rect
       id="rect3457"
       transform="translate(-2.8674,31.082)"
       height="0"
       width="10.808"
       y="7.3381"
       x="0.83139002" />
    <path
       id="path3549"
       d="m 134.3,133.53 c 0,0 9.57,-9.41 13.92,-4.12 4.35,5.29 5.22,4.12 5.22,4.12 l 2.78,-0.88 2.44,1.47 c 0,0 8.35,-6.17 11.13,-5.88 2.79,0.29 6.09,6.46 6.09,6.46 0,0 -4.53,-4.6 -11.83,-2.05 -1.54,0.54 -5.39,4.41 -6.78,4.7 -1.4,0.29 -3.48,0.59 -4.35,-0.88 -0.87,-1.47 -5.05,-5 -7.83,-5.29 -2.79,-0.3 -10.96,2.05 -10.79,2.35 z m 24.94,-18.92 c 0,0 7.31,-7.01 10.62,-3.07 3.32,3.95 3.99,3.07 3.99,3.07 l 2.12,-0.66 1.86,1.1 c 0,0 6.38,-4.6 8.5,-4.38 2.13,0.22 4.65,4.82 4.65,4.82 0,0 -3.46,-3.43 -9.03,-1.54 -1.18,0.4 -4.12,3.29 -5.18,3.51 -1.06,0.22 -2.66,0.43 -3.32,-0.66 -0.66,-1.09 -3.85,-3.72 -5.98,-3.94 -2.12,-0.22 -8.36,1.53 -8.23,1.75 z m 19.12,14.48 c 0,0 6.55,-6.21 9.53,-2.72 2.97,3.49 3.57,2.72 3.57,2.72 l 1.9,-0.58 1.67,0.97 c 0,0 5.72,-4.08 7.62,-3.88 1.91,0.19 4.17,4.26 4.17,4.26 0,0 -3.1,-3.03 -8.1,-1.35 -1.05,0.35 -3.69,2.91 -4.64,3.1 -0.95,0.19 -2.38,0.39 -2.98,-0.58 -0.59,-0.97 -3.45,-3.3 -5.35,-3.49 -1.91,-0.2 -7.51,1.35 -7.39,1.55 z"
       inkscape:connector-curvature="0"
       style="fill-rule:evenodd;stroke:#000000;stroke-width:1px" />
    <path
       id="rect3556"
       d="m 111.12,324.4 c 0.6,5.62 5.06,12.49 11.69,12.49 h 84.38 c 6.63,0 14.43,-6.87 15.03,-12.49 -30.2,3.71 -74.4,7.98 -111.1,0 z"
       inkscape:connector-curvature="0"
       style="stroke:#000000;stroke-width:0.14665;stroke-linecap:round" />
    <path
       id="path3561"
       d="m 111.95,349.36 c 0.6,-5.62 5.06,-12.49 11.69,-12.49 h 84.38 c 6.64,0 14.43,6.87 15.03,12.49 -30.2,-3.71 -74.4,-7.98 -111.1,0 z"
       transform="matrix(1,0,0,0.86683,0,45.692)"
       inkscape:connector-curvature="0"
       style="fill:url(#linearGradient3569);stroke:#000000;stroke-width:0.15751;stroke-linecap:round;filter:url(#filter2706)" />
    <path
       id="path3577"
       d="m 130.98,362.99 c 0,0 9.56,9.4 13.91,4.11 4.35,-5.29 5.22,-4.11 5.22,-4.11 l 2.79,0.88 2.43,-1.47 c 0,0 8.35,6.17 11.14,5.88 2.78,-0.3 6.09,-6.47 6.09,-6.47 0,0 -4.53,4.6 -11.83,2.06 -1.55,-0.54 -5.4,-4.41 -6.79,-4.7 -1.39,-0.3 -3.48,-0.59 -4.35,0.88 -0.87,1.47 -5.04,4.99 -7.83,5.29 -2.78,0.29 -10.96,-2.06 -10.78,-2.35 z m 24.94,18.91 c 0,0 7.3,7.01 10.62,3.07 3.32,-3.94 3.98,-3.07 3.98,-3.07 l 2.13,0.66 1.86,-1.09 c 0,0 6.37,4.6 8.49,4.38 2.13,-0.22 4.65,-4.82 4.65,-4.82 0,0 -3.45,3.43 -9.03,1.53 -1.18,-0.4 -4.11,-3.28 -5.18,-3.5 -1.06,-0.22 -2.65,-0.44 -3.32,0.65 -0.66,1.1 -3.85,3.73 -5.97,3.95 -2.13,0.22 -8.37,-1.54 -8.23,-1.76 z m 19.12,-14.47 c 0,0 6.55,6.21 9.52,2.71 2.98,-3.49 3.57,-2.71 3.57,-2.71 l 1.91,0.58 1.67,-0.97 c 0,0 5.71,4.07 7.62,3.88 1.9,-0.2 4.16,-4.27 4.16,-4.27 0,0 -3.1,3.04 -8.09,1.36 -1.06,-0.36 -3.69,-2.91 -4.65,-3.11 -0.95,-0.19 -2.38,-0.38 -2.97,0.59 -0.6,0.97 -3.46,3.29 -5.36,3.49 -1.91,0.19 -7.5,-1.36 -7.38,-1.55 z"
       inkscape:connector-curvature="0"
       style="opacity:0.22034003;fill-rule:evenodd;stroke:#000000;stroke-width:1px;filter:url(#filter2706)" />
  </g>
  <metadata
     id="metadata54">
    <rdf:RDF>
      <cc:Work>
        <dc:format>image/svg+xml</dc:format>
        <dc:type
           rdf:resource="http://purl.org/dc/dcmitype/StillImage" />
        <cc:license
           rdf:resource="http://creativecommons.org/publicdomain/zero/1.0/" />
        <dc:publisher>
          <cc:Agent
             rdf:about="http://openclipart.org/">
            <dc:title>Openclipart</dc:title>
          </cc:Agent>
        </dc:publisher>
        <dc:title>Sunset Waterscene</dc:title>
        <dc:date>2008-05-15T13:43:25</dc:date>
        <dc:description>An quick example how to use the wavefilter from the distortion pack. The Palmtree is sampled from  &quot;palm tree  by Anonymous&quot;</dc:description>
        <dc:source>https://openclipart.org/detail/16754/sunset-waterscene-by-chrisdesign-16754</dc:source>
        <dc:creator>
          <cc:Agent>
            <dc:title>Chrisdesign</dc:title>
          </cc:Agent>
        </dc:creator>
        <dc:subject>
          <rdf:Bag>
            <rdf:li>beach</rdf:li>
            <rdf:li>jpg</rdf:li>
            <rdf:li>scene</rdf:li>
            <rdf:li>sun</rdf:li>
            <rdf:li>sunset</rdf:li>
            <rdf:li>water</rdf:li>
          </rdf:Bag>
        </dc:subject>
      </cc:Work>
      <cc:License
         rdf:about="http://creativecommons.org/publicdomain/zero/1.0/">
        <cc:permits
           rdf:resource="http://creativecommons.org/ns#Reproduction" />
        <cc:permits
           rdf:resource="http://creativecommons.org/ns#Distribution" />
        <cc:permits
           rdf:resource="http://creativecommons.org/ns#DerivativeWorks" />
      </cc:License>
    </rdf:RDF>
  </metadata>
</svg>
